STARTFONT 2.1
FONT -FontForge-OwreKynge-Medium-R-Normal--16-160-72-72-P-72-ISO10646-1
SIZE 16 72 72
FONTBOUNDINGBOX 13 14 0 -4
COMMENT "Generated by fontforge, http://fontforge.sourceforge.net"
COMMENT "jeti"
STARTPROPERTIES 39
FOUNDRY "FontForge"
FAMILY_NAME "OwreKynge"
WEIGHT_NAME "Medium"
SLANT "R"
SETWIDTH_NAME "Normal"
ADD_STYLE_NAME ""
PIXEL_SIZE 16
POINT_SIZE 160
RESOLUTION_X 72
RESOLUTION_Y 72
SPACING "P"
AVERAGE_WIDTH 72
CHARSET_REGISTRY "ISO10646"
CHARSET_ENCODING "1"
FONTNAME_REGISTRY ""
CHARSET_COLLECTIONS "ISO10646-1"
FONT_NAME "OwreKynge"
FACE_NAME "OwreKynge"
COPYRIGHT "jeti"
FONT_VERSION "001.000"
FONT_ASCENT 12
FONT_DESCENT 4
UNDERLINE_POSITION -2
UNDERLINE_THICKNESS 1
X_HEIGHT 6
CAP_HEIGHT 8
RAW_ASCENT 750
RAW_DESCENT 250
NORM_SPACE 5
RELATIVE_WEIGHT 50
RELATIVE_SETWIDTH 50
SUPERSCRIPT_X 0
SUPERSCRIPT_Y 7
SUPERSCRIPT_SIZE 11
SUBSCRIPT_X 0
SUBSCRIPT_Y 2
SUBSCRIPT_SIZE 11
AVG_LOWERCASE_WIDTH 67
AVG_UPPERCASE_WIDTH 98
ENDPROPERTIES
CHARS 95
STARTCHAR space
ENCODING 32
SWIDTH 312 0
DWIDTH 5 0
BBX 1 1 0 0
BITMAP
00
ENDCHAR
STARTCHAR exclam
ENCODING 33
SWIDTH 250 0
DWIDTH 4 0
BBX 3 10 0 0
BITMAP
40
E0
E0
C0
C0
40
00
40
E0
40
ENDCHAR
STARTCHAR quotedbl
ENCODING 34
SWIDTH 375 0
DWIDTH 6 0
BBX 5 3 0 6
BITMAP
D8
D8
D8
ENDCHAR
STARTCHAR numbersign
ENCODING 35
SWIDTH 500 0
DWIDTH 8 0
BBX 7 9 0 0
BITMAP
24
6C
7E
EC
6C
7E
FC
48
48
ENDCHAR
STARTCHAR dollar
ENCODING 36
SWIDTH 375 0
DWIDTH 6 0
BBX 5 11 0 -1
BITMAP
20
20
70
D8
C0
F8
18
D8
70
20
20
ENDCHAR
STARTCHAR percent
ENCODING 37
SWIDTH 750 0
DWIDTH 12 0
BBX 11 11 0 -1
BITMAP
0080
6100
D300
9200
B600
64C0
0DA0
0920
1960
10C0
2000
ENDCHAR
STARTCHAR ampersand
ENCODING 38
SWIDTH 500 0
DWIDTH 8 0
BBX 7 10 0 -1
BITMAP
30
58
CC
78
32
5E
CC
FC
6E
04
ENDCHAR
STARTCHAR quotesingle
ENCODING 39
SWIDTH 187 0
DWIDTH 3 0
BBX 2 3 0 6
BITMAP
C0
C0
C0
ENDCHAR
STARTCHAR parenleft
ENCODING 40
SWIDTH 250 0
DWIDTH 4 0
BBX 3 12 0 -3
BITMAP
20
60
40
C0
C0
C0
C0
C0
C0
40
60
20
ENDCHAR
STARTCHAR parenright
ENCODING 41
SWIDTH 250 0
DWIDTH 4 0
BBX 3 12 0 -3
BITMAP
80
C0
40
60
60
60
60
60
60
40
C0
80
ENDCHAR
STARTCHAR asterisk
ENCODING 42
SWIDTH 437 0
DWIDTH 7 0
BBX 6 5 0 4
BITMAP
30
FC
78
78
48
ENDCHAR
STARTCHAR plus
ENCODING 43
SWIDTH 437 0
DWIDTH 7 0
BBX 6 5 0 1
BITMAP
10
30
FC
30
20
ENDCHAR
STARTCHAR comma
ENCODING 44
SWIDTH 250 0
DWIDTH 4 0
BBX 3 5 0 -2
BITMAP
40
E0
60
C0
80
ENDCHAR
STARTCHAR hyphen
ENCODING 45
SWIDTH 312 0
DWIDTH 5 0
BBX 4 2 0 3
BITMAP
70
E0
ENDCHAR
STARTCHAR period
ENCODING 46
SWIDTH 250 0
DWIDTH 4 0
BBX 3 3 0 0
BITMAP
40
E0
40
ENDCHAR
STARTCHAR slash
ENCODING 47
SWIDTH 500 0
DWIDTH 8 0
BBX 7 11 0 -1
BITMAP
02
04
0C
08
18
10
30
20
60
40
80
ENDCHAR
STARTCHAR zero
ENCODING 48
SWIDTH 437 0
DWIDTH 7 0
BBX 6 9 0 0
BITMAP
30
58
CC
CC
CC
CC
CC
68
30
ENDCHAR
STARTCHAR one
ENCODING 49
SWIDTH 250 0
DWIDTH 4 0
BBX 3 9 0 0
BITMAP
60
E0
60
60
60
60
60
60
40
ENDCHAR
STARTCHAR two
ENCODING 50
SWIDTH 437 0
DWIDTH 7 0
BBX 6 9 0 0
BITMAP
30
58
CC
CC
08
10
20
7C
F8
ENDCHAR
STARTCHAR three
ENCODING 51
SWIDTH 437 0
DWIDTH 7 0
BBX 6 9 0 0
BITMAP
7C
F8
10
30
18
0C
4C
F8
30
ENDCHAR
STARTCHAR four
ENCODING 52
SWIDTH 437 0
DWIDTH 7 0
BBX 6 9 0 0
BITMAP
18
38
38
58
58
FC
18
18
10
ENDCHAR
STARTCHAR five
ENCODING 53
SWIDTH 437 0
DWIDTH 7 0
BBX 6 9 0 0
BITMAP
38
70
40
F0
98
0C
0C
E8
70
ENDCHAR
STARTCHAR six
ENCODING 54
SWIDTH 437 0
DWIDTH 7 0
BBX 6 9 0 0
BITMAP
38
50
C0
D8
EC
CC
CC
C8
70
ENDCHAR
STARTCHAR seven
ENCODING 55
SWIDTH 437 0
DWIDTH 7 0
BBX 6 9 0 0
BITMAP
7C
F8
10
20
60
60
60
70
20
ENDCHAR
STARTCHAR eight
ENCODING 56
SWIDTH 437 0
DWIDTH 7 0
BBX 6 9 0 0
BITMAP
30
58
CC
78
78
CC
CC
68
30
ENDCHAR
STARTCHAR nine
ENCODING 57
SWIDTH 437 0
DWIDTH 7 0
BBX 6 9 0 0
BITMAP
38
4C
CC
CC
DC
6C
0C
28
70
ENDCHAR
STARTCHAR colon
ENCODING 58
SWIDTH 250 0
DWIDTH 4 0
BBX 3 7 0 0
BITMAP
40
E0
40
00
40
E0
40
ENDCHAR
STARTCHAR semicolon
ENCODING 59
SWIDTH 250 0
DWIDTH 4 0
BBX 3 9 0 -2
BITMAP
40
E0
40
00
40
E0
60
C0
80
ENDCHAR
STARTCHAR less
ENCODING 60
SWIDTH 375 0
DWIDTH 6 0
BBX 5 5 0 1
BITMAP
18
70
C0
70
18
ENDCHAR
STARTCHAR equal
ENCODING 61
SWIDTH 375 0
DWIDTH 6 0
BBX 5 3 0 2
BITMAP
F8
00
F8
ENDCHAR
STARTCHAR greater
ENCODING 62
SWIDTH 375 0
DWIDTH 6 0
BBX 5 5 0 1
BITMAP
C0
70
18
70
C0
ENDCHAR
STARTCHAR question
ENCODING 63
SWIDTH 375 0
DWIDTH 6 0
BBX 5 10 0 0
BITMAP
60
D8
18
F8
C0
D8
30
20
70
20
ENDCHAR
STARTCHAR at
ENCODING 64
SWIDTH 625 0
DWIDTH 10 0
BBX 9 10 0 -2
BITMAP
1E00
3F00
6180
CC80
DE80
D280
DF00
CE00
6000
3000
ENDCHAR
STARTCHAR A
ENCODING 65
SWIDTH 625 0
DWIDTH 10 0
BBX 9 9 0 0
BITMAP
6600
BF00
1B00
3300
7F00
B300
3300
7380
2100
ENDCHAR
STARTCHAR B
ENCODING 66
SWIDTH 625 0
DWIDTH 10 0
BBX 9 9 0 0
BITMAP
1600
3B00
F300
3200
7F00
B180
3180
3900
6E00
ENDCHAR
STARTCHAR C
ENCODING 67
SWIDTH 562 0
DWIDTH 9 0
BBX 8 9 0 0
BITMAP
27
5A
D8
D8
F8
D8
E8
71
3E
ENDCHAR
STARTCHAR D
ENCODING 68
SWIDTH 687 0
DWIDTH 11 0
BBX 10 9 0 0
BITMAP
2700
7F80
B4C0
34C0
76C0
34C0
34C0
3D80
6F00
ENDCHAR
STARTCHAR E
ENCODING 69
SWIDTH 562 0
DWIDTH 9 0
BBX 8 9 0 0
BITMAP
27
5A
D8
DF
FA
D8
E8
71
3E
ENDCHAR
STARTCHAR F
ENCODING 70
SWIDTH 625 0
DWIDTH 10 0
BBX 9 9 0 0
BITMAP
1780
3D00
F400
3780
7500
B400
3400
3400
6800
ENDCHAR
STARTCHAR G
ENCODING 71
SWIDTH 625 0
DWIDTH 10 0
BBX 9 9 0 0
BITMAP
2700
5A00
D880
D980
FB80
D980
E980
7100
3E00
ENDCHAR
STARTCHAR H
ENCODING 72
SWIDTH 562 0
DWIDTH 9 0
BBX 8 12 0 -2
BITMAP
18
72
B7
3B
33
73
33
33
73
13
02
04
ENDCHAR
STARTCHAR I
ENCODING 73
SWIDTH 437 0
DWIDTH 7 0
BBX 6 9 0 0
BITMAP
74
BC
34
34
74
34
34
34
68
ENDCHAR
STARTCHAR J
ENCODING 74
SWIDTH 562 0
DWIDTH 9 0
BBX 8 10 0 -1
BITMAP
1D
2F
0D
0D
1D
0D
2D
ED
6E
38
ENDCHAR
STARTCHAR K
ENCODING 75
SWIDTH 625 0
DWIDTH 10 0
BBX 9 9 0 0
BITMAP
1100
7B00
B600
3C00
7E00
3300
3300
7300
1180
ENDCHAR
STARTCHAR L
ENCODING 76
SWIDTH 625 0
DWIDTH 10 0
BBX 9 9 0 0
BITMAP
7C00
B800
1000
7000
B000
3000
3700
2F80
5900
ENDCHAR
STARTCHAR M
ENCODING 77
SWIDTH 875 0
DWIDTH 14 0
BBX 13 9 0 0
BITMAP
2660
7FF0
B330
3330
77B0
3330
3330
7338
1110
ENDCHAR
STARTCHAR N
ENCODING 78
SWIDTH 625 0
DWIDTH 10 0
BBX 9 9 0 0
BITMAP
2600
7F00
B300
3300
7300
3300
3300
7780
1100
ENDCHAR
STARTCHAR O
ENCODING 79
SWIDTH 625 0
DWIDTH 10 0
BBX 9 9 0 0
BITMAP
2E00
5B00
D980
D980
DD80
D980
E980
7300
3E00
ENDCHAR
STARTCHAR P
ENCODING 80
SWIDTH 687 0
DWIDTH 11 0
BBX 10 13 0 -4
BITMAP
2700
7F80
B4C0
34C0
76C0
34C0
34C0
3D80
7F00
3000
3000
7000
2000
ENDCHAR
STARTCHAR Q
ENCODING 81
SWIDTH 625 0
DWIDTH 10 0
BBX 9 11 0 -2
BITMAP
2E00
5B00
D980
D980
DD80
D980
E980
7300
3C00
0E80
0700
ENDCHAR
STARTCHAR R
ENCODING 82
SWIDTH 625 0
DWIDTH 10 0
BBX 9 9 0 0
BITMAP
1600
7B00
B300
3200
7E00
3300
3300
7300
1180
ENDCHAR
STARTCHAR S
ENCODING 83
SWIDTH 562 0
DWIDTH 9 0
BBX 8 9 0 0
BITMAP
1C
2F
66
78
3E
07
3B
7F
CE
ENDCHAR
STARTCHAR T
ENCODING 84
SWIDTH 625 0
DWIDTH 10 0
BBX 9 9 0 0
BITMAP
7C80
9F00
2800
6800
6800
6800
6800
3100
1E00
ENDCHAR
STARTCHAR U
ENCODING 85
SWIDTH 562 0
DWIDTH 9 0
BBX 8 9 0 0
BITMAP
44
EF
66
66
E6
66
66
6F
32
ENDCHAR
STARTCHAR V
ENCODING 86
SWIDTH 562 0
DWIDTH 9 0
BBX 8 9 0 0
BITMAP
44
EF
66
66
E6
66
64
38
10
ENDCHAR
STARTCHAR W
ENCODING 87
SWIDTH 812 0
DWIDTH 13 0
BBX 12 9 0 0
BITMAP
2220
F770
3330
3330
77B0
B330
1320
1DC0
0880
ENDCHAR
STARTCHAR X
ENCODING 88
SWIDTH 500 0
DWIDTH 8 0
BBX 7 9 0 0
BITMAP
42
E6
6C
38
FE
38
6C
CE
84
ENDCHAR
STARTCHAR Y
ENCODING 89
SWIDTH 562 0
DWIDTH 9 0
BBX 8 13 0 -4
BITMAP
44
EF
66
66
E6
66
64
38
30
40
78
3C
04
ENDCHAR
STARTCHAR Z
ENCODING 90
SWIDTH 562 0
DWIDTH 9 0
BBX 8 9 0 0
BITMAP
63
FF
36
0C
7E
30
6C
FF
C6
ENDCHAR
STARTCHAR bracketleft
ENCODING 91
SWIDTH 312 0
DWIDTH 5 0
BBX 4 12 0 -3
BITMAP
F0
C0
C0
C0
C0
C0
C0
C0
C0
C0
C0
F0
ENDCHAR
STARTCHAR backslash
ENCODING 92
SWIDTH 500 0
DWIDTH 8 0
BBX 7 11 0 -1
BITMAP
80
40
60
20
30
10
18
08
0C
04
02
ENDCHAR
STARTCHAR bracketright
ENCODING 93
SWIDTH 312 0
DWIDTH 5 0
BBX 4 12 0 -3
BITMAP
F0
30
30
30
30
30
30
30
30
30
30
F0
ENDCHAR
STARTCHAR asciicircum
ENCODING 94
SWIDTH 375 0
DWIDTH 6 0
BBX 5 4 0 5
BITMAP
20
30
58
88
ENDCHAR
STARTCHAR underscore
ENCODING 95
SWIDTH 500 0
DWIDTH 8 0
BBX 7 2 0 -2
BITMAP
3E
F8
ENDCHAR
STARTCHAR grave
ENCODING 96
SWIDTH 250 0
DWIDTH 4 0
BBX 3 4 0 5
BITMAP
C0
C0
60
20
ENDCHAR
STARTCHAR a
ENCODING 97
SWIDTH 437 0
DWIDTH 7 0
BBX 6 7 0 0
BITMAP
D0
F8
38
58
D8
FC
98
ENDCHAR
STARTCHAR b
ENCODING 98
SWIDTH 437 0
DWIDTH 7 0
BBX 6 9 0 0
BITMAP
20
E0
68
7C
6C
6C
EC
6C
30
ENDCHAR
STARTCHAR c
ENCODING 99
SWIDTH 375 0
DWIDTH 6 0
BBX 5 7 0 0
BITMAP
30
D8
C0
C0
C0
C0
60
ENDCHAR
STARTCHAR d
ENCODING 100
SWIDTH 375 0
DWIDTH 6 0
BBX 5 10 0 0
BITMAP
40
C0
60
30
58
D8
D8
D8
D0
60
ENDCHAR
STARTCHAR e
ENCODING 101
SWIDTH 375 0
DWIDTH 6 0
BBX 5 7 0 0
BITMAP
30
F0
D8
E0
C0
C0
60
ENDCHAR
STARTCHAR f
ENCODING 102
SWIDTH 312 0
DWIDTH 5 0
BBX 4 9 0 0
BITMAP
60
B0
C0
E0
C0
C0
C0
C0
40
ENDCHAR
STARTCHAR g
ENCODING 103
SWIDTH 437 0
DWIDTH 7 0
BBX 6 11 0 -4
BITMAP
10
3C
58
D8
D8
D8
78
0C
6C
F8
80
ENDCHAR
STARTCHAR h
ENCODING 104
SWIDTH 500 0
DWIDTH 8 0
BBX 7 9 0 0
BITMAP
20
E0
68
7C
6C
6C
6C
6E
24
ENDCHAR
STARTCHAR i
ENCODING 105
SWIDTH 312 0
DWIDTH 5 0
BBX 4 10 0 0
BITMAP
40
70
20
40
F0
60
60
60
60
20
ENDCHAR
STARTCHAR j
ENCODING 106
SWIDTH 312 0
DWIDTH 5 0
BBX 4 14 0 -4
BITMAP
40
70
20
40
F0
60
60
60
60
60
60
30
30
40
ENDCHAR
STARTCHAR k
ENCODING 107
SWIDTH 500 0
DWIDTH 8 0
BBX 7 9 0 0
BITMAP
20
E0
68
7C
68
7C
6C
EE
24
ENDCHAR
STARTCHAR l
ENCODING 108
SWIDTH 250 0
DWIDTH 4 0
BBX 3 9 0 0
BITMAP
40
E0
C0
C0
C0
C0
C0
C0
40
ENDCHAR
STARTCHAR m
ENCODING 109
SWIDTH 687 0
DWIDTH 11 0
BBX 10 7 0 0
BITMAP
5B00
ED80
6D80
6D80
6D80
EDC0
2480
ENDCHAR
STARTCHAR n
ENCODING 110
SWIDTH 500 0
DWIDTH 8 0
BBX 7 7 0 0
BITMAP
58
EC
6C
6C
6C
EE
24
ENDCHAR
STARTCHAR o
ENCODING 111
SWIDTH 375 0
DWIDTH 6 0
BBX 5 7 0 0
BITMAP
30
58
D8
D8
D8
D0
60
ENDCHAR
STARTCHAR p
ENCODING 112
SWIDTH 437 0
DWIDTH 7 0
BBX 6 10 0 -3
BITMAP
58
EC
6C
6C
6C
EC
70
60
60
40
ENDCHAR
STARTCHAR q
ENCODING 113
SWIDTH 375 0
DWIDTH 6 0
BBX 5 10 0 -3
BITMAP
30
58
D8
D8
D8
D8
78
18
18
10
ENDCHAR
STARTCHAR r
ENCODING 114
SWIDTH 437 0
DWIDTH 7 0
BBX 6 7 0 0
BITMAP
48
FC
68
60
60
F0
20
ENDCHAR
STARTCHAR s
ENCODING 115
SWIDTH 375 0
DWIDTH 6 0
BBX 5 7 0 0
BITMAP
30
D8
C0
F8
18
D8
60
ENDCHAR
STARTCHAR t
ENCODING 116
SWIDTH 312 0
DWIDTH 5 0
BBX 4 9 0 0
BITMAP
20
60
60
F0
60
60
60
60
20
ENDCHAR
STARTCHAR u
ENCODING 117
SWIDTH 500 0
DWIDTH 8 0
BBX 7 7 0 0
BITMAP
48
EC
6C
6C
6C
7E
2C
ENDCHAR
STARTCHAR v
ENCODING 118
SWIDTH 437 0
DWIDTH 7 0
BBX 6 7 0 0
BITMAP
48
EC
6C
6C
6C
78
10
ENDCHAR
STARTCHAR w
ENCODING 119
SWIDTH 625 0
DWIDTH 10 0
BBX 9 7 0 0
BITMAP
4900
ED80
6D80
6D80
6D80
7F00
1200
ENDCHAR
STARTCHAR x
ENCODING 120
SWIDTH 437 0
DWIDTH 7 0
BBX 6 7 0 0
BITMAP
44
EC
70
FC
38
DC
88
ENDCHAR
STARTCHAR y
ENCODING 121
SWIDTH 437 0
DWIDTH 7 0
BBX 6 11 0 -4
BITMAP
48
EC
6C
6C
6C
68
30
40
78
3C
04
ENDCHAR
STARTCHAR z
ENCODING 122
SWIDTH 375 0
DWIDTH 6 0
BBX 5 7 0 0
BITMAP
48
F8
30
F8
60
F8
90
ENDCHAR
STARTCHAR braceleft
ENCODING 123
SWIDTH 312 0
DWIDTH 5 0
BBX 4 12 0 -3
BITMAP
30
60
40
60
60
C0
60
60
40
40
60
30
ENDCHAR
STARTCHAR bar
ENCODING 124
SWIDTH 187 0
DWIDTH 3 0
BBX 2 12 0 -3
BITMAP
40
40
C0
C0
C0
C0
C0
C0
C0
C0
80
80
ENDCHAR
STARTCHAR braceright
ENCODING 125
SWIDTH 312 0
DWIDTH 5 0
BBX 4 12 0 -3
BITMAP
C0
60
20
60
60
30
60
60
20
20
60
C0
ENDCHAR
STARTCHAR asciitilde
ENCODING 126
SWIDTH 562 0
DWIDTH 9 0
BBX 8 4 0 2
BITMAP
32
F9
9F
4C
ENDCHAR
ENDFONT
